<svg xmlns="http://www.w3.org/2000/svg" data-name="Layer 1" viewBox="0 0 48 48" x="0px" y="0px">
  <title>compose text conversation chat</title>
  <path
    d="M42.61,41.27a1.06,1.06,0,0,1-1.45,1.18l-6-2.68A18.19,18.19,0,0,1,28,41.24a17.77,17.77,0,0,1-11.8-4.35,20.91,20.91,0,0,0,3.8.35c10.48,0,19-7.85,19-17.5a16,16,0,0,0-1.53-6.85A15.13,15.13,0,0,1,45,25.74a14.54,14.54,0,0,1-3.6,9.51Z" />
  <path
    d="M20,4C10.61,4,3,10.91,3,19.47A14.56,14.56,0,0,0,6.6,29L5.39,35a1.06,1.06,0,0,0,1.45,1.18l6-2.68A18.36,18.36,0,0,0,20,35c9.39,0,17-6.94,17-15.5S29.39,4,20,4ZM13,22.27a2,2,0,1,1,2-2A2,2,0,0,1,13,22.27Zm7,0a2,2,0,1,1,2-2A2,2,0,0,1,20,22.27Zm7,0a2,2,0,1,1,2-2A2,2,0,0,1,27,22.27Z" />
</svg>
